<svg id="Layer_1" data-name="Layer 1" xmlns="http://www.w3.org/2000/svg" viewBox="0 0 800 800"><title>Artboard 1</title><path d="M448.69,105.69c-2.79-.41-3.07.93-3.18,3-.24,4.31,3.26,1.73,4.79,2.92,1,4.39.1,8.73-1.68,12.76-3.49,7.87-2.68,16.13-2.63,24.32,0,5.18.41,10.37.54,15.55.24,10.21.34,20.43.62,30.64q.5,18.81,1.2,37.61.69,19.44,1.54,38.87.69,16.19,1.55,32.37c.78,14.4,1.59,28.8,2.51,43.2.82,12.83,1.63,25.67,2.76,38.49,1.7,19.16,3.39,38.33,5.63,57.44,2,17.05,4.73,34,7.16,51,.13.93.41,1.84.64,2.88l4,.2.29,4.31,2.76.37c.35,4,1.17,8.16-3.05,11-1.41.94-1.63,2.24-1.4,3.83a530.77,530.77,0,0,0,17.49,77.79c3,9.84,6.33,19.6,9.52,29.4.29.89.72,1.75,1.16,2.78h10.89l.66.61c-.62.93-1.71,1.82-1.77,2.78-.21,3.51-1.1,7.49.21,10.44s2.11,3.79,1.42,7.35c-.6,3.11-.68,6.83.47,9.69,4.85,12,10,24,15.51,35.68,6.53,13.87,13.44,27.55,20.4,41.2,4.52,8.87,9.41,17.54,14.24,26.25a3.42,3.42,0,0,0,2.35,1.41c4.64.53,7.84,3.24,8.28,7.84.33,3.5.07,7.05.07,10.66H516.71c0-5.55,0-11,0-16.38a9.81,9.81,0,0,0-.14-2A86,86,0,0,0,495,719.7c-15.27-16.38-34-25.89-56.35-27.84q-38.67-3.37-67.43,22.91a85,85,0,0,0-26.52,47.4c-.43,2.2.14,4.59.16,6.89,0,3.7,0,7.41,0,11.26H287.46a104.46,104.46,0,0,1,.07-10.63c.46-4.49,3.67-7,8.23-7.55a4.45,4.45,0,0,0,2.72-2.15c4.91-8.86,9.78-17.74,14.48-26.71a828.87,828.87,0,0,0,35.46-76c1.38-3.4,1.76-7.22-.29-10.81a3,3,0,0,1,0-2.72c3.16-3.33,3.13-7.36,2.88-11.49-.07-1.09.5-2.46-1.4-2.86-.33-.06-.3-1.81-.49-3.11,3.38,0,6.39-.08,9.39,0a2.29,2.29,0,0,0,2.61-1.85c12.2-34.68,21.67-70,27.06-106.46.35-2.33-.09-4.19-1.73-5.57-3.58-3-2.72-6.89-2.52-10.79l2.8-.38L387,497l4.13-.29c.8-4.63,1.78-9.28,2.37-14,2.7-21.49,5.43-43,7.87-64.49,1.34-11.75,2.2-23.55,3.11-35.33q1.55-19.76,2.77-39.53c.92-14.74,1.72-29.49,2.49-44.24q.87-16.71,1.55-33.41.84-20.34,1.54-40.69.69-19.83,1.26-39.67.53-18.69.91-37.37a146.49,146.49,0,0,0-.11-15.26c-.25-3-1.81-5.94-2.49-9-.92-4.07-1.55-8.21-2.38-12.71l5.46-.27v-4.53l-2.94-.5c-.09-2-.24-3.92-.24-5.88,0-.46.52-.91.76-1.39a10.48,10.48,0,0,0,.58-1.33c-2.85-1.52-.61-4-1.37-5.55a43.71,43.71,0,0,0,3.67-2.83c2.81-2.7,5.5-5.53,8.31-8.23a16.35,16.35,0,0,1,4.23-2.73,17.82,17.82,0,0,1-1.8-4.16c-.19-1.22.47-2.57.66-3.87.15-1.06.65-2.53.15-3.12-1.48-1.78-1.73-3.08.07-4.8.47-.45.38-2.1-.08-2.76-1.34-1.89-1.38-2.84-.05-4.54a2.52,2.52,0,0,0,.12-2.43c-1.66-1.71-1.4-2.88-.07-4.82a12,12,0,0,0,1.72-6.27c.18-8.84.08-17.68.08-26.72H432v9.41q0,8.58,0,17.17c0,2.6,1.13,4.72,2.34,7,.54,1-.26,2.71-.45,4.1-.12.82-.64,2-.29,2.39,1.84,1.79,1.86,3.24-.07,5a2.57,2.57,0,0,0,.18,2.49c1.73,1.64,1.39,3,.16,4.72a3.22,3.22,0,0,0,0,3.07c1.46,1.65,1.35,3,.05,4.51a3,3,0,0,0,.81,4.53,32.77,32.77,0,0,1,4.24,3.77c2.6,2.55,4.79,5.78,7.85,7.51,2.52,1.43,2.26,3,2.2,5,0,.63-.6,1.23-.9,1.86-.19.41-.56,1.16-.46,1.23C450.44,100.18,448.55,102.87,448.69,105.69Zm14.76,520.49c-.2-1-.32-1.66-.46-2.32-2.37-11-5-21.91-7-33-2.87-15.79-5.28-31.66-7.88-47.5-.19-1.18-.13-2.38-2-2.37-10.32.05-20.64,0-30.95.09a2.65,2.65,0,0,0-1.9,1.68c-.69,3.29-1,6.65-1.63,10-3.4,19-6.77,38.09-10.28,57.11-1,5.41-2.41,10.75-3.68,16.31Zm-43.1,14.2V629.85H406.2v10.53Zm3.18-10.61V640.3h14.1V629.77ZM455,640.42V629.83H440.89v10.59Zm3.77-185.36H440.48l10.65,9.63ZM403.05,640.39V629.67c-1.78,0-3.34-.1-4.87.05a2.27,2.27,0,0,0-1.66,1.09c-1,3.1-1.76,6.26-2.66,9.58Zm7-175.93L420.47,455H402.55Zm2.84-21.32L403,451.89h16.3Zm79.86,170.79-5.18-16.36-8,7.59Zm-34.55,15.74v10.65h9.08c-.88-3.29-1.64-6.36-2.58-9.39a2.22,2.22,0,0,0-1.6-1.2A46.81,46.81,0,0,0,458.19,629.67ZM400.48,598l-12.08,7.85,8.67,8.09C398.21,608.55,399.26,603.68,400.48,598Zm2.07-10.9c1-5.78,1.92-11,2.94-16.91l-11.06,8.08Zm55.12-135.13-9-8.92c-2,2.71-4.17,5.63-6.59,8.92ZM472,605.36l-11.33-7.5c1.2,5.66,2.27,10.66,3.35,15.73ZM421.27,449.68l.67-.1v-17l-7.45,7.94C416.58,443.33,418.92,446.51,421.27,449.68Zm39.33,7.63-7.36,9.33,9.85,8.92C462.23,469.23,461.46,463.56,460.6,457.31Zm-60-.21c-.86,6.3-1.62,11.87-2.48,18.2l9.82-8.92ZM381.16,605.2c-2.71-2.54-5.12-4.82-7.71-7.26-1.63,5.15-3.17,10-4.91,15.47Zm74.51-34.79c1,5.77,1.93,10.85,2.92,16.39l8-8.56Zm-9.1-129.35q-3.92-4.32-7.34-8.07V450l.59.09Zm-36.88,27.6L400,477.49h16.61Zm2.13-1.91c2.54,3.19,4.82,6.06,7.47,9.41.63-6.19,1.19-11.75,1.81-17.87Zm37.51.19c-3.09-2.78-6-5.41-9.32-8.42.65,6.14,1.23,11.66,1.89,17.92Zm8.31-35.15-.65-.05c-2.07,2.82-4.15,5.65-5.86,8l8.35,8.28C458.9,442.85,458.27,437.32,457.64,431.79Zm-6.15,37.12-6.72,8.56h16.15C457.67,474.53,454.76,471.88,451.49,468.91Zm-47.86-38.23c-.69,6.2-1.31,11.77-1.87,16.83l8.93-7.36C408.18,436.78,406.1,434,403.63,430.68Zm-3.88,121.41,7.32,8.24c.83-5.4,1.58-10.27,2.43-15.82Zm4.65-129,8.32-8L405.91,407C405.36,412.8,404.88,417.93,404.4,423.12ZM415,496.72c-2.55-2.16-4.55-3.91-6.62-5.58-.47-.37-1.37-.83-1.73-.63-3.38,1.88-6.68,3.89-10.6,6.21ZM480,570.37l-6.76,7.27L484,585.45Zm-39.43-141,8.45,8.41,6.21-8.41Zm12.58-47.49-6.55,9.22,8,8.38C454.07,393.31,453.63,387.94,453.13,381.83Zm-31.35,44.39-6.64-8.06-8.22,8.06Zm-13.69-44.66-1.44,16.79.52.21,7.44-7.9Zm47.18,25.55-7.13,8.71,8.63,7.82C456.27,418.18,455.81,413.08,455.27,407.11Zm-2-2.13H439l7.91,7.77Zm7.85,147.1-9.47-7.3c.84,5.4,1.58,10.14,2.39,15.33ZM422.47,353.35c-.5-3.39,1.47-7.05-2.61-9.35l-8.43,9.35Zm-6.2,39.77-8.17,8.63h14.31Zm22.42-13.25c0,4.5,3.65,6.12,5.94,9.05l6.26-9.05Zm15.47,46.38.33-.61-8.21-7.59-6.7,8.2ZM408,404.94l6.07,7.37,7.79-7.37ZM381.1,570.59c-1.32,4.94-2.54,9.47-3.91,14.62l10.49-7.59Zm30.69-133.75,7.71-7.42H406.29Zm51.84,59.93.16-.47c-2.86-1.72-5.71-3.46-8.59-5.13-.45-.26-1.28-.5-1.57-.28-2.3,1.78-4.51,3.67-7.17,5.88ZM441.18,343.9c-2.6,2.53-3.07,5-2,9.37h10.5C446.64,349.93,444,347,441.18,343.9Zm1.49-2.25c2.75,3,5.18,5.7,7.62,8.37l.58-.27c-.34-4.84-.67-9.68-1-14ZM409.56,376l.54.73h12.31c.24-4-3.25-5.5-4.44-7.9Zm12.94,4H410.57l6,8.55C418.78,385.7,422.23,384.12,422.5,380ZM418,342.16l-6.8-6.77c-.31,4.74-.63,9.58-.95,14.42l.52.23Zm34.69,59.65-7.82-8.34c-2,2.9-3.85,5.46-5.87,8.34Zm-1.44-25L443,369.5c-.83,2-4.62,3.3-4.08,7.27ZM404.84,488.2l-7.77-6.5c-.69,4.29-1.31,8.05-2,12.33ZM460.9,481H443.75l10,6Zm16.38,78.09c-1.09-5-2-9.29-3-14L468,551.85ZM375.66,594l9.29,8.59c.83-3.12,1.54-5.78,2.28-8.59ZM464.08,482l-7.74,6.56,9.79,5.76Zm57.66,271.66c1.65,2.9,3.1,5.47,4.68,8.27,2.53-2.82,4.84-5.4,7.43-8.27ZM340.64,729c2.76,3,5.11,5.55,7.78,8.43L353,729ZM451.49,359.63l-.62-.17c-1.84,2.32-3.68,4.64-5.56,7l7.13,6.68C452.12,368.58,451.81,364.11,451.49,359.63ZM416,366.29l-6.31-7.59c-.37,5.31-.69,9.84-1,14.27Zm-81.44,396,4.57-8.23H327.22ZM439,356.44c-.43,3.57.36,4.87,4.54,7.62l6-7.62Zm-18.76-35.26L413,329.53h9.53C421.9,326.57,423.91,323.28,420.26,321.18Zm28,8.36-7.56-8.5c-3.16,2.46-1.49,5.57-2,8.5ZM484.87,594h-11c.77,2.82,1.46,5.34,2.24,8.21ZM448.65,312.22c-2,2.21-3.75,3.89-5.23,5.73a2.24,2.24,0,0,0,.08,2.13c1.67,2.1,3.52,4.05,5.31,6.06l.54-.19C449.13,321.63,448.91,317.3,448.65,312.22Zm-36.1-.06c-.29,5.18-.54,9.67-.82,14.83l6.95-8ZM400.6,480.91c2.36,1.95,4.12,3.47,5.95,4.89a1.83,1.83,0,0,0,1.56.35c2.8-1.57,5.53-3.26,8.83-5.24ZM508.18,729l4.44,8.18L520,729ZM384,558.57l8.85-6.89-6-6.3C385.86,549.82,385,553.82,384,558.57ZM418,364.2c1.65-2.77,5.51-3.72,4.22-7.73H411.72ZM365.86,703.66H354.71l7.27,8Zm-29.65,20.4,4.13-7.71h-11Zm54.26-143-11.27,8.26a40.37,40.37,0,0,0,7.36.61c1.43.06,2-.56,2.27-1.86C389.25,585.94,389.8,583.87,390.47,581Zm61-92.19-8.74-5c.52,4,1,7.4,1.44,11.09ZM344.72,724.34l.11.49c3.15,0,6.3,0,9.45,0a1.43,1.43,0,0,0,1.1-.44c1.2-2.21,2.32-4.45,3.78-7.31Zm68.61-433.66v13c7-5.87,7-6.14.91-12.76C414.2,290.84,414.08,290.85,413.33,290.68Zm5.15,192.67-8.67,5.22,7.18,6C417.5,490.71,418,487.34,418.48,483.35ZM534,741.05c1.55,2.67,2.94,5,4.45,7.63l6.72-7.63ZM520.72,716l3.95,7.88,7-7.88Zm-14.48-12.52H495.13l4,7.84Zm-161.67-4.33c-2-2.27-3.56-4.24-5.37-5.92a2.68,2.68,0,0,0-2.6.2,46,46,0,0,0-2.69,5.72Zm49.05-132.25h-9.7c2.67,2.83,5.05,5.37,7.85,8.35C392.46,572.12,393,569.52,393.62,566.88Zm75.72,8.39,7.79-8.42h-9.6C468.12,569.57,468.65,572.08,469.34,575.27ZM516.2,724.54l0-.55-13.73-6.8a25.43,25.43,0,0,0,2.74,6.08,2.6,2.6,0,0,0,1.72,1.21C510,724.6,513.12,724.54,516.2,724.54ZM447.61,303.67l.54-.2q-.3-6.12-.61-12.24l-.65-.16-5.17,6ZM470.8,581.36c.66,2.82,1.07,4.92,1.67,7,.17.59.88,1.43,1.38,1.46,2.55.15,5.1.07,7.66.07l.18-.56ZM420.35,339.54c2.25-1.68,2.56-4.12,1.81-6.86H413Zm49.87,349.07,5.06,2.57a47.3,47.3,0,0,0,2.29-6.2,3.6,3.6,0,0,0-1.08-2.87c-.35-.33-2.07.19-2.58.81A61.28,61.28,0,0,0,470.22,688.61ZM315.77,741.39c2.56,2.81,4.62,5.09,6.88,7.58,1.45-2.58,2.77-4.94,4.24-7.58Zm211.31-42.6a58.9,58.9,0,0,0-2.73-5.89,2.39,2.39,0,0,0-2.27-.35c-1.9,1.88-3.59,4-5.59,6.24ZM391,688.8c-1.47-2.23-2.6-4.14-4-5.86a2.42,2.42,0,0,0-2.22-.66,2.83,2.83,0,0,0-1.18,2.3,70.43,70.43,0,0,0,2.2,6.81Zm47.91-356.23c-.16,2.83-.65,5.48,2.43,7.17l6.82-7.17Zm-16.61,89.76V409.88c-2,2-3.68,3.77-5.51,5.65Zm-8-115.42h7.89c.68-5.07.48-6.35-1.18-7.79Zm92.12,333.72.78-.38V629.79H502C503.49,633.59,504.35,637.38,506.41,640.63ZM371.58,616.71l.14.57c2.62,0,5.23,0,7.85,0a1.54,1.54,0,0,0,1.19-.72c.72-2.12,1.33-4.29,2.18-7.14Zm129.6,21c-3.06-8.85-3.09-8.87-8.56-7.56.31,1.24.22,3.07,1,3.64C495.78,635.28,498.3,636.25,501.18,637.69Zm-133.09-8a22.25,22.25,0,0,0-3.18,0c-.82.13-2,.38-2.29.95a66.33,66.33,0,0,0-2.4,6.28C366.82,635,368.64,633.41,368.09,629.67Zm72.09-330.39-.87.05V307H447Zm34.6,310.92-6.95,6.94h9.1C476.14,614.6,475.44,612.33,474.78,610.2ZM444.35,415.89,439,410.35v12Zm37.2,279a38.7,38.7,0,0,0,2.09-5.86c.19-1-.63-2.1-1-3.16-.92.44-2.12.65-2.69,1.37A42.61,42.61,0,0,0,477,692.1Zm-88.37-65h-5.1c1.2,3.55-1.12,7.35,2.08,11C391.25,636.88,392.18,633.52,393.18,629.87Zm121.35,81.54c-1.21-2.46-2.24-4.56-3.37-6.84l-6.05,6.84ZM443.2,531.63l-5.09-5.88-5.4,5.88Zm-58.93,85.43h9.67l-7.56-7C385.64,612.5,385,614.68,384.27,617.06Zm-30.2,23.33,1,.28c1.33-3.53,2.67-7.06,4.11-10.84h-5.11ZM433,312.52V325.2C437.43,321.22,437.27,316.2,433,312.52Zm-49,379.67a31.79,31.79,0,0,0-2.61-4.43A10.4,10.4,0,0,0,378.6,686c-.38,1.22-1.2,2.52-1,3.65.28,1.73,1.25,3.34,2,5.17Zm104.88-74.9.09-.56-10.78-7.14c.71,2.47,1.15,4.39,1.85,6.22a2.52,2.52,0,0,0,1.72,1.41C484.18,617.38,486.57,617.29,488.94,617.29ZM419.68,275.93l-5.31-6.05v12ZM401.51,687.4c1.22,6.51,1.72,6.81,6.94,4.18-.69-1.81-1.39-3.63-2.15-5.6Zm12.62-377.35,6.15,6.77c3.08-1.67,2.07-4.25,2-6.77ZM539.75,724.39l-3.43-6.81-6.17,6.81Zm-193.19-12.7h9.35l-6.2-6.87ZM330.9,724.75l-6.23-6.85-3.3,6.85ZM470.77,640h1c2-3.17.65-6.72.9-10.18H468Zm-74.5,56,4.85-2-2.53-5.81-4.83,1.92Zm68.58-.12c.89-2.11,1.65-3.9,2.51-5.92l-4.84-1.85-2.52,6ZM385,694.27l-4.25,2.61,2.51,5.76,4.62-2.75Zm67.91-2.5c5.36,2.11,6.23,1.53,6.58-4.4C454.23,685.66,455.19,685,452.88,691.77Zm23.19,2.44-2.83,5.62,4.67,2.75,2.43-5.8ZM446.58,270.92l-.65-.13-4.56,5.28,5.79,6.39C447,278.16,446.76,274.54,446.58,270.92ZM408.65,685.64c.73,2,1.4,3.82,2.08,5.68,1-.16,1.85-.25,2.67-.43s1.59-.42,2.39-.64C413.5,683.26,414.41,684.32,408.65,685.64Zm30.4-375.58c-.64,4.6-.57,4.86,1.88,6.67l6.09-6.67ZM428.23,531.67l-4.81-5.28-5.94,5.28ZM466.9,696.73l4.33,2.15c1-2,1.88-3.79,2.89-5.81l-4.61-2.23ZM446,250.88l-.6-.21-4.6,5.35,5.2,5.86ZM388.52,675.72l4.87-4.62c-1.62-2-3.18-3.83-4.87-5.85Zm44-372.56c5.4-4.49,4.41-9.34,0-12.19Zm-34.31,238h-8.13c2.38,2.67,4.44,5,6.89,7.7C397.41,546,397.78,543.66,398.18,541.2ZM485.44,670l4.54,5.56v-9.83ZM394.2,696.78c-.94-2.1-1.76-3.91-2.61-5.78l-4.53,2.28c.95,1.94,1.84,3.73,2.79,5.65Zm-17.05,9.84c4.68-2.88,4.79-3.58,1.43-8.3C374.44,700.67,374.44,700.67,377.15,706.62Zm51-381.65V312.84C424,315.66,423.86,321.68,428.16,325Zm22.2,366.41c.73-2,1.4-3.86,2.07-5.71-5.33-1.57-5.33-1.57-6.85,4.67Zm-11.82-2.1c5,1.18,5.6.69,6.34-4.9C438.8,683.31,439.41,682.64,438.54,689.28Zm101,47.35.08-.56q-5.4-2.8-10.82-5.59a12.88,12.88,0,0,0,2,4.68,3.44,3.44,0,0,0,2.09,1.41C535.13,736.75,537.35,736.63,539.57,736.63ZM415.84,251l-.62.28v10.59l5-5.76ZM319.29,762h9.07l-5.62-6.25c-1.23,2.06-2.29,3.83-3.34,5.61A2.6,2.6,0,0,0,319.29,762ZM422.57,689.4c-.51-6.28-1.23-6.82-6.27-4.83C418.47,691.57,418.08,690.11,422.57,689.4ZM369.4,621.84a29,29,0,0,1,2.86,2.67c1.36,1.68,3.29,2.49,5,1.6,1.06-.56,1.33-2.63,2.08-4.27Zm51.76-327.15.95-.12.4-6.67h-7.42Zm137,465c-2.09-6.15-4.31-7.28-11.28-5.7ZM446.23,287.86h-7.48c.46,2.36-.95,4.82,1.27,7Zm18,260.84,6.6-7.53h-7.87C463.34,543.55,463.72,545.77,464.21,548.7ZM428.25,670l-4.8-4.84v9.93Zm34.71.68c-1.62-1.83-3.16-3.59-4.79-5.45v10.12ZM354.1,665.47v9.39l4.74-4.53Zm178.44,96.29h9.36l-3.66-6.3ZM481.36,621.68c1.26,1.94,1.88,4.13,3,4.47,3.37,1,4.48-2.62,7.48-4.26-1.21-.12-1.61-.2-2-.2ZM433.43,347.46c3.85-3.08,3.59-9.18,0-11.67ZM311.55,743.33c-1.09,2.11-2.05,3.95-3.13,6h8.52Zm121-473v11.58C437.52,276.94,437.47,274.76,432.56,270.35Zm-37,285c-3.06,2.4-5.66,4.46-8.75,6.9h7.62c.36-1.6.72-3.09,1-4.6A19.87,19.87,0,0,0,395.59,555.35ZM483.8,706.56c2.93-5.32,2.77-6.06-1.74-8l-2.16,5.26ZM332.58,730.49l-11.67,6C329,737.76,329.77,737.38,332.58,730.49Zm40.1-27.94c-4.58,3.14-4,1.81-.75,8.12C375.82,708.26,375.89,707.54,372.68,702.55Zm43.79-478.44c1.48-1.67,2.76-2.93,3.82-4.37a2.43,2.43,0,0,0,.29-2.17,61.9,61.9,0,0,0-4.11-4.79ZM433.83,358.5l.75,16.23C436.91,372.11,436.52,360.94,433.83,358.5ZM314.13,754.27c-7.25-1.31-10,.12-10.87,5.44ZM428.41,270.36c-4.93,3.3-3.88,9.28.51,11.28C428.75,277.91,428.59,274.29,428.41,270.36Zm124.2,478.76-3.15-6.1c-1.92,2.13-3.59,4-5.49,6.1ZM415.49,284.66h7.05c-.13-2.31-.25-4.4-.37-6.48l-.88-.08Zm-70.91,459-10.89,5.67C339.13,750.18,343.47,750.11,344.58,743.63Zm15.23-44.91c8.38.84,9.72.11,10.14-5.11Zm-30.44,10.56,11.16-5.64C331.29,703.22,330.92,703.41,329.37,709.28Zm136.14-153.7c.9,7.5,1.47,7.94,8.15,6.34Zm-40.87,128c.25,6,.41,6.2,4.42,5.46v-5.85Zm-4.28-8.34v-9.48L415.7,670Zm-9.69-4.57-4.48-4.76v8.61Zm111.26,70.63L533,747C530.55,740.73,529.26,740.07,521.93,741.29Zm-.69-38-.08.5,11,5.49c-1-2-1.5-3.37-2.23-4.61-.34-.57-1-1.28-1.57-1.32C526,703.19,523.6,703.27,521.24,703.27ZM403.18,666.05l-4.13,3.67,4.13,5.27ZM527.25,749l-10.89-5.57C518.47,749.34,519.58,749.92,527.25,749Zm-54.74-74v-9.34c-1.72,1.67-3.23,3.15-4.78,4.67ZM444.64,520l-3.95,3.08,5.36,6.12ZM428.4,291.24c-4.57,3.67-4.57,7.17,0,11.4ZM444.5,213c-1.73,1.94-2.95,3.21-4,4.6a1.66,1.66,0,0,0-.05,1.56c1.32,1.67,2.77,3.23,4.08,4.72Zm-8.66,257.65V460.14C431.43,465.32,431.43,466.4,435.84,470.69Zm-8.17-134.82c-3.5,2.35-3.61,9.17,0,11.53Zm96.8,394.86c-1.77,2-3.34,3.7-5.16,5.7h8.16ZM415.68,267.43l5.75,6.38.68-.29v-6.09Zm-26.2,332.36,8.84-5.74C389.59,593.68,390.94,592.77,389.48,599.79Zm-61.39,147.4,10.76-5.63C331.43,740.58,330,741.33,328.09,747.19ZM445.53,284.68l-5.82-6.49-.62.26v6.39c1.31,0,2.6,0,3.88,0C443.65,284.82,444.32,284.76,445.53,284.68ZM432.14,689.1c3.87.5,4.7-.61,4.19-5.53l-4.19-.22ZM516,706c2.18,5.85,4.32,6.9,9.8,5.07Zm-83.5-444.93c5.36-4.78,4.31-6.31,0-10.14ZM455,675.17v-9.1l-4.71,4Zm45.76,23.69.13-.6-10.39-5.15a46.19,46.19,0,0,0,2.05,4.63,2.53,2.53,0,0,0,1.76,1.07C496.41,699,498.57,698.86,500.72,698.86Zm-29.18-99c-1.15-6.76-.1-6.3-8.47-5.7Zm-3.83-16.3-5.61,6.15h7.1C468.7,587.62,468.27,585.83,467.71,583.52ZM441,665.37v8.81l4.74-4Zm-8.42-433.7V242C437,237.8,437.55,236.66,432.53,231.67ZM371.37,665.34v8.56l4.29-3.62C374.22,668.61,372.93,667.13,371.37,665.34ZM415.82,232.4v9.5c5-4.33,5-4.79.89-9.22C416.61,232.58,416.41,232.58,415.82,232.4ZM345.23,706.1,335,711.48C342,712.82,342.64,712.49,345.23,706.1Zm-11.68,30.54h8.05l-5.07-5.53Zm83-217.28c-.45,3.31-.83,6.16-1.19,8.86l5.25-4.94Zm5.74-122.75v-8.85l-4.1,3C419.57,392.76,420.74,394.41,422.28,396.61Zm-54.08,278v-9C364.17,668.64,364.18,671.85,368.2,674.65Zm13.62-48.06,9.17-4.32a14.57,14.57,0,0,0-5-.58C382.34,621.69,382,622.06,381.82,626.59Zm10.11-36.93h6.87l-5.41-5.88c-.43,1.61-.7,2.59-.94,3.58C392.28,588,392.15,588.69,391.93,589.66Zm97.44,121c2.38-4.89,2.28-5.35-1.44-7.27C485.35,708.21,485.37,708.31,489.37,710.65Zm-73.1-446h6v-6.75Zm62.84,361.89.79-.79c-.75-1.35-1.25-3.59-2.27-3.86-2.27-.59-4.79-.18-7.2-.18l-.06.6Zm-40.43-359.1c.14,2.28.26,4.26.38,6.24h.83l5.44-6.25Zm-1,407.09v-8.69l-4.36,4.24ZM425.3,470.93c4.46-5.45,4.42-6.84,0-10.31ZM440.64,237l4.52,5.23v-10.2ZM439,258v6.63h5.85C442.84,262.36,441.08,260.37,439,258ZM507.3,665.94,503,670.07l4.32,4.4ZM429.14,470.51c-1.67,2.14-4.45,3.74-3.76,7h3.76Zm-2.61-111.3c-1.59,1.39-2.08,12.48,0,15.47Zm-1,87.22c4.24-5.87,4.34-7.58,1-11.27C426.12,439,425.8,442.7,425.49,446.43ZM422.3,238.71l-5.69,6.77h5.69Zm70.8,426.77v9.71C497.13,672.35,497.18,669.44,493.1,665.48ZM418.77,517l3.76,4.09,4.68-4.09Zm19.48,4.34,3.77-4.3h-8.16Zm4.6-129.95L439,387.8v9.09Zm-98,360.31-.26-.24-6,10.59h3.59ZM428.42,251.1c-4.47,4.51-4.39,6.49,0,9.6Zm34.89,435,4.95,1.75c.85-2.09,1.58-4.46-.55-5.26C465.37,681.68,464.38,684.19,463.31,686.07ZM428.45,232c-4.36,4-4.24,7.29,0,9.19ZM397.65,686.2c-1.31-2.84-3.33-4.37-4.44-3.34-1.62,1.5-1.29,3.29-.16,5.12Zm112.58-11.38,4-3.65-4-4.44Zm-78.1-197,3.77-.53a24.14,24.14,0,0,0-1.25-3.71,29.34,29.34,0,0,0-2.52-3.54ZM421.28,200.9l-4.16-4.57v8.31Zm87.94,491.32c.92,1.87,1.65,3.36,2.49,5.09l4.55-5.09ZM391.32,519.65c-.57,3.57-1.07,6.75-1.68,10.56C394.56,524,394.57,524.86,391.32,519.65Zm130.9,241.89c-1.93-3.37-3.72-6.51-5.52-9.64.33,2.57,1.16,5,1.5,7.42S519.67,762.4,522.22,761.54ZM429.09,496.75v-5.91c-2.06,1.7-4.88,2.5-3.56,5.91Zm0,23.56-3.58,3.18,3.58,4.06Zm6.48-74c-.32-3.48-.64-7-1-10.59C430.06,439.86,433.74,443,435.59,446.31Zm3.29-200.86h5.48L438.79,239c0,2.08,0,3.35,0,4.61C438.8,244.16,438.85,244.74,438.88,245.45Zm31,273.86c-2.91,5.74-2.88,6,1.43,10C470.81,525.85,470.38,522.85,469.87,519.31ZM351.62,692.66h-6.83l4.59,5.07C350.22,695.84,350.88,694.33,351.62,692.66Zm16,16.13c-2.75,3.51-2.85,4.27-.88,6.78C370,712.81,370,712.81,367.63,708.79Zm49.31-460.54,5.31,6v-6ZM385.55,629.77l-4.81,2.43,4.81,4.16Zm108,78.26c-.88,1.91-1.5,3.28-1.94,4.24l2.84,3.24C497.16,712.79,494.7,710.79,493.59,708ZM432.23,491v5.62h3.61C436.8,493.4,433.8,493,432.23,491Zm10.43-331.21v-7.54C438.41,155.91,438.41,155.91,442.66,159.83ZM435.52,524l-3.34-4v7.3Zm4.8-339.51,3.56,4.57c-.17-2.84-.3-5.06-.48-8Zm44.15,455.87c-.53-1.63-1-3.08-1.57-4.81l-5.1,4.81Zm-40.58-444-3.66,4.3,3.66,3.82ZM507,696.54c-1-4.81-2.33-5.44-7.55-4ZM432.43,205.19c4.51-3.88,4.46-5.21,0-7.78ZM417.91,173l3.66-2.76-3.41-3.38c-.12,1.65-.24,3.34-.33,5A6.1,6.1,0,0,0,417.91,173Zm43.48,356.79c3.05-5.27,3-5.51-1-9.48C460.72,523.66,461,526.5,461.39,529.81Zm-39.6-373.45-3.25-3.61c-.17,2.56-.32,4.94-.53,8.08Zm10.7,66.18c4.29-3.86,4.26-4.87,0-7.88Zm-107,506.75c-6.09-1-6.85-.64-8.28,4.13ZM424.8,455l4.31,6.4V455ZM376.61,640.29h6.6l-5-4.41Zm23.17-110.47c.38-3.45.68-6.22,1.05-9.65C396.66,525.58,396.86,523.83,399.78,529.82Zm36-129.93c.11-5.43.68-11,0-16.56l-.83,0ZM431.94,189.4l3.73-3.94-3.25-3.54Zm7,58.84V254l4.92-5.8ZM316.71,757.94l-8.18,4.12C316.32,762.4,314.53,762.7,316.71,757.94Zm33.6-41.41c-5.85-1-6.8-.48-7.58,3.82Zm78-511.86V197.5C424.28,200.94,424.29,201.37,428.32,204.67ZM417.6,181.22v7.09l3.66-2.87Zm4.19,302.28c-.42,3.52-.84,7-1.29,10.86C422.6,492.79,423.08,489.08,421.79,483.5Zm17.52-313.63,4.11,4.57c-.19-3-.35-5.34-.54-8.22Zm79.63,550.54c-2.16-4.77-3.88-5.53-8-3.95ZM459.07,566.78l-.17.47,6.16,4.41c-.43-2-.74-3.38-1.07-4.88Zm-97.4,126c-6.46-.54-6.29-1.07-7.57,4ZM428.42,214.6c-4,3.69-4,4.24,0,7.57Zm-10.86,15.09,4.71,5.35v-5.35ZM429.1,480.91h-3.86c-.1,2.73,2.08,3.3,3.86,4.69Zm-35.67,35.61,2.5,5.14,3.18-4.67ZM436.28,455h-4.16v6.24Zm-28,66.73c1.19-1.72,2.09-3,3.19-4.65h-5.27Zm41.4-4.69,3.28,4.68,2.07-4.68ZM422.5,142.36l-3.72-3.16c-.12,2.39-.22,4.37-.34,6.91ZM544,733.28c-2-4.71-3.5-5.41-7.66-3.83ZM422.17,226.71v-5.2l-4.27,5.2Zm45.31,290.42h-5.26c1.15,1.62,2.1,3,3.23,4.57Zm-123.54,160h5.5l-3.86-4C345,674.49,344.51,675.69,343.94,677.09ZM543.49,757.3c2.66,5.05,3.46,5.42,8.23,4.11ZM439,229.66V235l4.65-5.29Zm36.6,406.55,4.46-4.12-4.46-2.19v6.31Zm-90,30.42c-3.24,7.19-3,6.49,0,8.23Zm-34.73,6.68v-6.84c-1.32,1.51-2.31,2.63-3.38,3.84Zm88-446.71h4.37l-4.37-5.1ZM402.58,566.77h-5.44c-.3,1.4-.6,2.76-1,4.68Zm37-72.27,1.11-.25-1.4-10.74C439.25,487.19,437.86,491,439.57,494.5Zm-13.79-42.6H429v-6.18Zm6.3,33.8c1.63-1.81,4.09-2.08,3.89-4.72h-3.89Zm17.32,43c2.69-4.13,2.49-3.9-1.15-7.81ZM439.21,143.07l3.13,2.61v-6.33Zm-14,41.78,3.73,4.12c-.19-2.51-.36-4.64-.54-7ZM403.33,528.38c3.39-3.55,3.46-4.35.9-7.65C403.94,523.21,403.66,525.56,403.33,528.38Zm80.11,167,.13,1,3.27,2.42.83-.29c-.34-1.35-.67-2.69-1-4Zm-65.3-484.87c1.45,1.7,2.63,3.1,4.11,4.85v-4.85Zm17.69,280.62v-5.65l-3.52,2.88Zm22.54,71.12h4.69c-.23-1.4-.44-2.66-.74-4.45Zm-3.95-21L460,545.5C459.76,540.84,459.76,540.84,454.42,541.24Zm35.38,99.39c.57-3.79.27-4.2-3.2-4.67C487.63,637.52,487,640.05,489.8,640.63ZM435.47,452c-1.14-2.13-2.07-3.85-3.27-6.1V452Zm-22.58,69c-3.59,3.63-3.64,4-1.07,7.23C412.17,525.83,412.5,523.59,412.89,521ZM443,210.56h-4v4.77ZM375.2,635.23c-4.34,1.31-4.52,1.6-3.7,5.37C374.24,640,373.42,637.16,375.2,635.23Zm22.88-73.08h4.39l-3.69-4.06C398.5,559.69,398.3,560.84,398.08,562.15Zm31.15-141.58-.61-.17c-.54,1.53-1.15,3-1.53,4.59-.09.33.68.88,1.06,1.32.36-.37,1-.72,1-1.12C429.3,423.65,429.23,422.11,429.23,420.57ZM422.3,204.75,418.14,208l4.16-.23Zm16.62-.85v3.88h3.64ZM422.3,369.56v-6.13l-2.63,2.88Zm-29.69,162h4.64c-.63-1.25-1.21-2.43-1.9-3.82Zm89,131.73h-3.83l3.83,4.21Zm-73.81-135.6-2.76,4h4.67Zm49.86-.31c-.24-2-.48-4.09-.74-6.36C454.51,524.23,454.51,524.23,457.67,527.33ZM475.81,667.5v7.2C478.48,672.52,478.47,671.88,475.81,667.5Zm-9.92-139.94-1.69,4h4.47Zm-64.56,17.51,5-3.79C401.34,540.76,401.34,540.76,401.33,545.07Zm52.17-17.42c-.74,1.51-1.31,2.67-1.92,3.93h4.68Zm-20.18-437h3.25L433.32,87Zm-.82,82.27,3.19-2.81L432.5,167ZM377.18,663.22H373.9l3.28,3.63Zm-2.48,30.66c-.48,1.63-.86,2.89-1.23,4.15l.6.36,3.66-2.4Zm89.54-27.36v-3.36h-3.45C462,664.34,463.05,665.36,464.24,666.52Zm-35.83-499-2.62,2,2.62,3.2ZM377.15,677.16v-3.23L374,677.16Zm32.11-14,2.82,3.62v-3.62Zm-11.7,0v4l3.77-4ZM438.93,369.8l2.71-3.46-2.71-2.55Zm-13.6,116v5l3.23-2.54ZM456,683l.11,1,4,1.06.49-.51c-.48-.8-.86-2.15-1.47-2.26C458.16,682.06,457,682.71,456,683Zm56.89-5.91h4.39l-1.33-2.84ZM359.81,666.37v-3.18H356.6Zm73-513.78v5.18l2.71-1.91Zm-4.61,6v-5.68l-2.37,2.86C426.53,156.64,427.16,157.4,428.16,158.59Zm-.36-71.26-3.71,3.33h3.71ZM404.85,684.08l.16-1c-1.05-.25-2.17-.84-3.11-.64-.55.12-.82,1.52-1.45,2.84ZM436,349.75l-.73-.33-1.63,3.26,2.36.95Zm-9.82,33.64h-.63v9.86h.18Zm9.73-240.9-2.79-2.68c-.16,2-.29,3.56-.42,5.12l.57.18Zm-3.33,84.39,3.35-.19v-3.76Zm-10.28-28.83v-3.79H419Zm4.29,231.34,2.16,4.31.41-.21v-4.1Zm16.49,233.78,3.55,3.39v-3.39Zm-10.93-229.3.75.16c.43-1.41.9-2.8,1.21-4.23a11.81,11.81,0,0,0-2-.76ZM501.9,666.06l3.13-2.89H501.9Zm-93.12,11.06h3.28v-3.36Zm24-256.1c-1.12,5.23-1.11,5.25,1.42,5Zm-6.36,242.1,2.91,3.33v-3.33ZM391.85,663l-.31.4,2.94,2.12v-2.39Zm72.41,10.58-3.43,3.58h3.43Zm-17.69,3.56v-2.87l-3.28,2.87Zm-49.08,0H400l-2.69-3.48Zm100,38.78c-1.51,3.53,1.71,3.94,2.74,5.49C499.45,719.83,498.65,718.22,497.51,716Zm-58.6-517.87c1.25-1.5,2.1-2.52,3.19-3.85h-3.19Zm-20.1-6.47,3.41-.16v-3.14ZM415,665.85l.54.3,3-3.19-3.39.25C415,664.19,415,665,415,665.85Zm13.46-439.16-3.05-3.52v3.52Zm-5.94-50.05c-.09-1.12-.15-1.92-.21-2.6l-2.92,2.6Z"/></svg>